# This file uses centimeters as units for non-parametric coordinates.

mtllib skybox.mtl
g default
v -108.680402 -108.680402 108.680402
v 108.680402 -108.680402 108.680402
v -108.680402 108.680402 108.680402
v 108.680402 108.680402 108.680402
v -108.680402 108.680402 -108.680402
v 108.680402 108.680402 -108.680402
v -108.680402 -108.680402 -108.680402
v 108.680402 -108.680402 -108.680402
vt -5.597069 3.530593
vt -5.534744 -2.574893
vt 0.129205 4.219284
vt 1.234144 -8.179638
vt 6.947432 -2.736446
vt 0.963983 -2.202536
vt 6.693411 3.052908
vt 0.768913 3.871674
vt 6.736778 9.304014
vt 6.671710 3.770062
vt -5.435705 -8.631827
vt 0.294470 -8.703491
vt -5.902492 9.704012
vt 0.112019 9.633293
vt 0.835180 9.507559
vt 6.577013 -2.210726
vt 1.025448 3.024966
vt 6.883023 -8.214251
vt -5.933258 4.290566
vt 0.211613 3.661183
vt -5.575150 -1.929186
vt 0.334696 -2.485468
vt 1.295552 -2.700606
vt 0.107897 -1.921272
vn 0.000000 0.000000 -1.000000
vn 0.000000 0.000000 -1.000000
vn 0.000000 0.000000 -1.000000
vn 0.000000 0.000000 -1.000000
vn 0.000000 -1.000000 0.000000
vn 0.000000 -1.000000 0.000000
vn 0.000000 -1.000000 0.000000
vn 0.000000 -1.000000 0.000000
vn 0.000000 0.000000 1.000000
vn 0.000000 0.000000 1.000000
vn 0.000000 0.000000 1.000000
vn 0.000000 0.000000 1.000000
vn 0.000000 1.000000 0.000000
vn 0.000000 1.000000 0.000000
vn 0.000000 1.000000 0.000000
vn 0.000000 1.000000 0.000000
vn -1.000000 0.000000 0.000000
vn -1.000000 0.000000 0.000000
vn -1.000000 0.000000 0.000000
vn -1.000000 0.000000 0.000000
vn 1.000000 0.000000 0.000000
vn 1.000000 0.000000 0.000000
vn 1.000000 0.000000 0.000000
vn 1.000000 0.000000 0.000000
s 1
g pCube1
usemtl lambert2SG
f 1/1/1 3/20/2 2/21/3
f 2/21/3 3/20/2 4/24/4
s 2
f 3/23/5 5/5/6 4/4/7
f 4/4/7 5/5/6 6/18/8
s 3
f 5/17/9 7/7/10 6/6/11
f 6/6/11 7/7/10 8/16/12
s 4
f 7/15/13 1/9/14 8/8/15
f 8/8/15 1/9/14 2/10/16
s 5
f 2/2/17 4/22/18 8/11/19
f 8/11/19 4/22/18 6/12/20
s 6
f 7/13/21 5/14/22 1/19/23
f 1/19/23 5/14/22 3/3/24
